<svg width="54" height="56" viewBox="0 0 54 56" fill="none" xmlns="http://www.w3.org/2000/svg">
<path d="M37.0195 5.39726e-05C36.3503 -0.00182603 35.5698 0.0455038 34.6113 0.127004L3.39453 2.41411C0.87653 2.63011 0 4.2647 0 6.2227V40.1934C0 41.7184 0.54633 43.0227 1.86133 44.7657L9.19922 54.2383C10.4042 55.7623 11.5007 56.0895 13.8027 55.9805L50.0566 53.8008C53.1226 53.5858 54 52.1694 54 49.7754V11.5586C54 10.2516 53.4506 9.92656 51.8066 8.72856L41.8418 1.75981C40.0351 0.454814 39.0272 0.00568397 37.0195 5.39726e-05ZM36.3731 2.98833C38.3482 3.02031 39.4744 3.77855 40.3477 4.45317L45.5566 8.20122C45.7776 8.31122 46.332 8.97075 45.666 8.97075L14.2988 10.8458C10.9718 11.0678 10.3062 11.1762 8.53516 9.74419L4.21289 6.32622C3.77089 5.88422 3.99261 5.33366 5.09961 5.22466L35.4727 3.02154C35.7912 2.99404 36.0909 2.98376 36.3731 2.98833ZM48.6719 13.0098C49.5823 13.1017 50 13.8418 50 15.0782V47.3047C50 48.7207 49.7795 49.9204 47.8125 50.0274L13.8398 51.9883C11.8728 52.0953 11 51.4423 11 49.6993V17.2579C11 15.8429 11.4371 15.1862 12.7481 15.0782L48.252 13.0118C48.4023 12.998 48.5418 12.9967 48.6719 13.0098ZM45 18.5001L38 19.0001C36.359 19.1961 35.5 20.0001 35.5 21.0001L38.5 21.5001V36.5001L27 19.5001L19.2012 20.1876C17.6622 20.3796 17.1238 21.7086 17.3438 22.6876L20 23.0001V44.0001L19 44.5001C17 45.0001 17.5 46.0001 17.5 46.5001L25.5 46.0001C28 45.5001 28 44.0001 28 44.0001L24 43.0001V27.0001L34.9356 43.9708C36.2446 45.5998 36.751 46.5001 38.5 46.5001C40 46.5001 41.5 46.0001 42.5 45.0001V21.0001L43.8926 20.7325C44.9996 20.5005 45.5 19.5001 45 18.5001Z" fill="white"/>
</svg>
